<svg width="96.288" height="34.368" viewBox="0 0 96.288 34.368" xmlns="http://www.w3.org/2000/svg"><g id="svgGroup" stroke-linecap="round" fill-rule="evenodd" font-size="9pt" stroke="#ffffff00" stroke-width="0.25mm" fill="#ffffff" style="stroke:#ffffff00;stroke-width:0.25mm;fill:#ffffff"><path d="M 0 0 L 20.064 0 L 20.064 4.224 L 4.416 4.224 L 4.416 15.12 L 18.528 15.12 L 18.528 19.248 L 4.416 19.248 L 4.416 30.144 L 20.064 30.144 L 20.064 34.368 L 0 34.368 L 0 0 Z M 47.712 30.144 L 47.712 34.368 L 24.096 34.368 L 24.096 29.76 L 42.384 4.224 L 24.864 4.224 L 24.864 0 L 47.52 0 L 47.52 4.608 L 29.232 30.144 L 47.712 30.144 Z M 96.288 4.224 L 86.688 4.224 L 86.688 34.368 L 82.272 34.368 L 82.272 4.224 L 72.672 4.224 L 72.672 0 L 96.288 0 L 96.288 4.224 Z M 68.064 0 L 68.064 34.368 L 63.648 34.368 L 63.648 0 L 68.064 0 Z"/></g></svg>