<svg width="221.8" height="71.6" viewBox="0 0 221.8 71.6" xmlns="http://www.w3.org/2000/svg"><g id="svgGroup" stroke-linecap="round" fill-rule="evenodd" font-size="9pt" stroke="#00000000" stroke-width="0.55mm" fill="#00000000" style="stroke:#00000000;stroke-width:0.55mm;fill:#00000000"><path d="M 0 0 L 41.8 0 L 41.8 8.8 L 9.2 8.8 L 9.2 31.5 L 38.6 31.5 L 38.6 40.1 L 9.2 40.1 L 9.2 62.8 L 41.8 62.8 L 41.8 71.6 L 0 71.6 L 0 0 Z M 99.4 62.8 L 99.4 71.6 L 50.2 71.6 L 50.2 62 L 88.3 8.8 L 51.8 8.8 L 51.8 0 L 99 0 L 99 9.6 L 60.9 62.8 L 99.4 62.8 Z M 221.8 8.8 L 201.8 8.8 L 201.8 71.6 L 192.6 71.6 L 192.6 8.8 L 172.6 8.8 L 172.6 0 L 221.8 0 L 221.8 8.8 Z M 163 0 L 163 71.6 L 153.8 71.6 L 153.8 0 L 163 0 Z M 141 36.8 L 141 44.4 L 109 44.4 L 109 36.8 L 141 36.8 Z" vector-effect="non-scaling-stroke"/></g></svg>